{"accessors":[{"bufferView":2,"componentType":5126,"count":104,"max":[0.21249999105930328,1.1781908781927086e-8,0.2849999666213989],"min":[-0.2124999761581421,-6.14722051039962e-9,-0.2799999713897705],"type":"VEC3"},{"bufferView":2,"byteOffset":1248,"componentType":5126,"count":104,"max":[6.180864176030809e-8,-1,4.3711395392165286e-8],"min":[-6.6370148488204e-8,-1,-8.40103737687059e-8],"type":"VEC3"},{"bufferView":1,"componentType":5126,"count":104,"max":[1,0.7256641983985901],"min":[1.7582472144894723e-9,8.791236072447361e-10],"type":"VEC2"},{"bufferView":0,"componentType":5125,"count":240,"type":"SCALAR"},{"bufferView":2,"byteOffset":2496,"componentType":5126,"count":2064,"max":[0.2124999761581421,0.02000001259148121,0.2149999886751175],"min":[-0.21249999105930328,-1.2198322352219293e-8,-0.34999996423721313],"type":"VEC3"},{"bufferView":2,"byteOffset":27264,"componentType":5126,"count":2064,"max":[1,1,1],"min":[-1,-5.841588972543832e-7,-1],"type":"VEC3"},{"bufferView":1,"byteOffset":832,"componentType":5126,"count":2064,"max":[1,1],"min":[-0.005159041844308376,-0.0037429402582347393],"type":"VEC2"},{"bufferView":0,"byteOffset":960,"componentType":5125,"count":3096,"type":"SCALAR"},{"bufferView":2,"byteOffset":52032,"componentType":5126,"count":288,"max":[0.1968500018119812,0.010000009089708328,0.1993500143289566],"min":[-0.1968500018119812,0.004999990575015545,-0.33434998989105225],"type":"VEC3"},{"bufferView":2,"byteOffset":55488,"componentType":5126,"count":288,"max":[1,1,1],"min":[-1,-1,-1],"type":"VEC3"},{"bufferView":1,"byteOffset":17344,"componentType":5126,"count":288,"max":[1.0000001192092896,0.936170220375061],"min":[0,0],"type":"VEC2"},{"bufferView":0,"byteOffset":13344,"componentType":5125,"count":432,"type":"SCALAR"},{"bufferView":2,"byteOffset":58944,"componentType":5126,"count":48,"max":[0.19499999284744263,7.858554340600676e-8,0.3349999785423279],"min":[-0.19500000774860382,-3.974622586611076e-8,-0.19999994337558746],"type":"VEC3"},{"bufferView":2,"byteOffset":59520,"componentType":5126,"count":48,"max":[1.5099588779321493e-7,1,3.8220306919356517e-7],"min":[-7.270172375228867e-8,1,-1.947072547636708e-7],"type":"VEC3"},{"bufferView":1,"byteOffset":19648,"componentType":5126,"count":48,"max":[1.0000410079956055,1],"min":[0,0],"type":"VEC2"},{"bufferView":0,"byteOffset":15072,"componentType":5125,"count":72,"type":"SCALAR"}],"asset":{"extras":{"author":"Christian (https://sketchfab.com/Enzi1984)","license":"CC-BY-4.0 (http://creativecommons.org/licenses/by/4.0/)","source":"https://sketchfab.com/3d-models/photo-collage-wall-c00259c4a9244fc69f8ecc3a0588b7cf","title":"photo collage, wall"},"generator":"Sketchfab-12.68.0","version":"2.0"},"bufferViews":[{"buffer":0,"byteLength":15360,"name":"floatBufferViews","target":34963},{"buffer":0,"byteLength":20032,"byteOffset":15360,"byteStride":8,"name":"floatBufferViews","target":34962},{"buffer":0,"byteLength":60096,"byteOffset":35392,"byteStride":12,"name":"floatBufferViews","target":34962}],"buffers":[{"byteLength":95488,"uri":"data:application/octet-stream;base64,"}],"images":[{"uri":"data:application/octet-stream;base64,"}],"materials":[{"doubleSided":true,"name":"back_panel-black","pbrMetallicRoughness":{"baseColorFactor":[0.0168074,0.0185002,0.0202886,1],"metallicFactor":0,"roughnessFactor":0.9}},{"doubleSided":true,"name":"Black_Plastic","pbrMetallicRoughness":{"baseColorFactor":[0,0,0,1],"metallicFactor":0,"roughnessFactor":0.7}},{"alphaMode":"BLEND","doubleSided":true,"name":"glass","pbrMetallicRoughness":{"baseColorFactor":[1,1,1,0.02],"metallicFactor":0,"roughnessFactor":0.5}},{"doubleSided":true,"name":"photos","pbrMetallicRoughness":{"baseColorTexture":{"index":0},"metallicFactor":0,"roughnessFactor":0.5}}],"meshes":[{"name":"Object_0","primitives":[{"attributes":{"NORMAL":1,"POSITION":0,"TEXCOORD_0":2},"indices":3,"material":0,"mode":4}]},{"name":"Object_1","primitives":[{"attributes":{"NORMAL":5,"POSITION":4,"TEXCOORD_0":6},"indices":7,"material":1,"mode":4}]},{"name":"Object_2","primitives":[{"attributes":{"NORMAL":9,"POSITION":8,"TEXCOORD_0":10},"indices":11,"material":2,"mode":4}]},{"name":"Object_3","primitives":[{"attributes":{"NORMAL":13,"POSITION":12,"TEXCOORD_0":14},"indices":15,"material":3,"mode":4}]}],"nodes":[{"children":[1],"matrix":[1,0,0,0,0,2.220446049250313e-16,-1,0,0,1,2.220446049250313e-16,0,0,0,0,1],"name":"Sketchfab_model"},{"children":[2],"name":"root"},{"children":[3],"matrix":[1,0,0,0,0,2.220446049250313e-16,1,0,0,-1,2.220446049250313e-16,0,0,0,0,1],"name":"GLTF_SceneRootNode"},{"children":[4,6,9],"name":"Photo collage_4"},{"children":[5],"matrix":[-1,0,3.821371353845884e-15,0,0,1,0,0,-3.821371353845884e-15,0,-1,0,0,0,0.004999996162950993,1],"name":"back-panel_1"},{"mesh":0,"name":"Object_5"},{"children":[7,8],"matrix":[1,0,0,0,0,1,0,0,0,0,1,0,0,0,0.06999999284744263,1],"name":"frame_2"},{"mesh":1,"name":"Object_7"},{"mesh":2,"name":"Object_8"},{"children":[10],"matrix":[-1,0,-6.6002361555513294e-15,0,0,1,0,0,6.6002361555513294e-15,0,-1,0,-0.00013366108760237694,0.004499984905123711,0.06999999284744263,1],"name":"photos_3"},{"mesh":3,"name":"Object_10"}],"samplers":[{"magFilter":9729,"minFilter":9987,"wrapS":10497,"wrapT":10497}],"scene":0,"scenes":[{"name":"Sketchfab_Scene","nodes":[0]}],"textures":[{"sampler":0,"source":0}]}